<!DOCTYPE svg PUBLIC "-//W3C//DTD SVG 20010904//EN" "http://www.w3.org/TR/2001/REC-SVG-20010904/DTD/svg10.dtd">
<svg version="1.0" xmlns="http://www.w3.org/2000/svg" width="64px" height="64px" viewBox="0 0 640 640" preserveAspectRatio="xMidYMid meet">
<g id="layer101" fill="#3f321f" stroke="none">
 <path d="M0 320 l0 -320 320 0 320 0 0 320 0 320 -320 0 -320 0 0 -320z"/>
 </g>
<g id="layer102" fill="#5e4b2f" stroke="none">
 <path d="M0 600 l0 -40 40 0 40 0 0 -200 0 -200 -40 0 -40 0 0 -80 0 -80 80 0 80 0 0 80 0 80 40 0 40 0 0 -80 0 -80 80 0 80 0 0 40 0 40 40 0 40 0 0 -40 0 -40 40 0 40 0 0 40 0 40 40 0 40 0 0 200 0 200 -80 0 -80 0 0 40 0 40 40 0 40 0 0 40 0 40 -120 0 -120 0 0 -80 0 -80 -40 0 -40 0 0 80 0 80 -120 0 -120 0 0 -40z m240 -280 l0 -80 -40 0 -40 0 0 80 0 80 40 0 40 0 0 -80z m320 -120 l0 -120 -40 0 -40 0 0 120 0 120 40 0 40 0 0 -120z"/>
 </g>
<g id="layer103" fill="#695433" stroke="none">
 <path d="M80 400 l0 -240 -40 0 -40 0 0 -80 0 -80 80 0 80 0 0 80 0 80 40 0 40 0 0 -80 0 -80 80 0 80 0 0 40 0 40 40 0 40 0 0 -40 0 -40 40 0 40 0 0 40 0 40 40 0 40 0 0 40 0 40 -40 0 -40 0 0 -40 0 -40 -40 0 -40 0 0 120 0 120 40 0 40 0 0 -40 0 -40 40 0 40 0 0 120 0 120 -80 0 -80 0 0 40 0 40 40 0 40 0 0 40 0 40 -80 0 -80 0 0 -40 0 -40 -40 0 -40 0 0 -40 0 -40 -40 0 -40 0 0 80 0 80 -80 0 -80 0 0 -240z m160 -80 l0 -80 -40 0 -40 0 0 80 0 80 40 0 40 0 0 -80z"/>
 </g>
<g id="layer104" fill="#7c623e" stroke="none">
 <path d="M160 560 l0 -80 -40 0 -40 0 0 -240 0 -240 40 0 40 0 0 80 0 80 40 0 40 0 0 40 0 40 -40 0 -40 0 0 80 0 80 120 0 120 0 0 -160 0 -160 -40 0 -40 0 0 -40 0 -40 40 0 40 0 0 40 0 40 40 0 40 0 0 120 0 120 40 0 40 0 0 -40 0 -40 40 0 40 0 0 40 0 40 -40 0 -40 0 0 80 0 80 -40 0 -40 0 0 40 0 40 -40 0 -40 0 0 -40 0 -40 -80 0 -80 0 0 80 0 80 -40 0 -40 0 0 -80z"/>
 </g>
<g id="layer105" fill="#987849" stroke="none">
 <path d="M160 520 l0 -40 -40 0 -40 0 0 -80 0 -80 40 0 40 0 0 40 0 40 120 0 120 0 0 -160 0 -160 -40 0 -40 0 0 -40 0 -40 40 0 40 0 0 40 0 40 40 0 40 0 0 120 0 120 40 0 40 0 0 -40 0 -40 40 0 40 0 0 40 0 40 -40 0 -40 0 0 80 0 80 -160 0 -160 0 0 40 0 40 -40 0 -40 0 0 -40z"/>
 <path d="M160 200 l0 -40 -40 0 -40 0 0 -80 0 -80 40 0 40 0 0 80 0 80 40 0 40 0 0 40 0 40 -40 0 -40 0 0 -40z"/>
 </g>
<g id="layer106" fill="#ffffff" stroke="none">
 <path d="M80 400 l0 -80 40 0 40 0 0 40 0 40 160 0 160 0 0 -40 0 -40 40 0 40 0 0 80 0 80 -240 0 -240 0 0 -80z"/>
 <path d="M160 200 l0 -40 40 0 40 0 0 40 0 40 -40 0 -40 0 0 -40z"/>
 <path d="M400 200 l0 -40 40 0 40 0 0 40 0 40 -40 0 -40 0 0 -40z"/>
 </g>

</svg>